<svg width="36" height="32" viewBox="0 0 36 32" fill="none" xmlns="http://www.w3.org/2000/svg">
<path d="M19.5119 26.9767C19.2853 26.3429 18.6878 25.9172 18.0253 25.9172C17.8407 25.9173 17.6576 25.9502 17.4843 26.0145C16.6647 26.3182 16.2406 27.2438 16.5388 28.0779C16.7655 28.7116 17.363 29.1373 18.0255 29.1373C18.21 29.1373 18.3931 29.1043 18.5664 29.04C19.3861 28.7364 19.8102 27.8108 19.5119 26.9767ZM18.2058 28.0315C18.148 28.0531 18.087 28.0641 18.0256 28.0641C17.9173 28.0639 17.8118 28.0299 17.7232 27.9667C17.6345 27.9035 17.5671 27.8142 17.5298 27.7108C17.4304 27.4328 17.5718 27.1242 17.845 27.0231C17.9027 27.0015 17.9637 26.9905 18.0252 26.9904C18.1334 26.9907 18.2389 27.0247 18.3276 27.0879C18.4162 27.1511 18.4836 27.2404 18.5208 27.3438C18.6203 27.6218 18.479 27.9303 18.2058 28.0315Z" fill="#FD5523"/>
<path d="M35.968 22.0286L35.2465 20.0117C35.1992 19.8791 35.1024 19.7709 34.977 19.7106L34.9739 19.709C34.966 19.7052 34.9578 19.7022 34.9497 19.6989C34.9421 19.6957 34.9346 19.6921 34.9269 19.6894C34.9251 19.6886 34.9231 19.6882 34.9212 19.6876C34.8075 19.6478 34.6837 19.6489 34.5707 19.6909L32.8463 20.3291L29.178 10.073L29.1777 10.0723L27.7353 6.03937C27.698 5.9361 27.6304 5.84693 27.5418 5.78387C27.4532 5.7208 27.3478 5.68684 27.2396 5.68657C27.1784 5.68657 27.1173 5.6973 27.0596 5.71877C26.7861 5.81965 26.6448 6.12873 26.7439 6.40633L28.0068 9.93586L21.2347 12.4438L21.2343 12.4439C21.2341 12.444 21.234 12.4441 21.2338 12.4441L17.1052 13.9731L14.3394 6.24213L17.9736 4.89634L18.7552 7.08094C18.7923 7.18431 18.8596 7.27363 18.9481 7.33684C19.0366 7.40005 19.1421 7.43412 19.2502 7.43445C19.3121 7.43445 19.3725 7.42372 19.4309 7.40147L22.0739 6.42271C22.1389 6.39882 22.1987 6.36206 22.2498 6.31454C22.3008 6.26701 22.3421 6.20967 22.3713 6.14583C22.4148 6.05113 22.4301 5.94549 22.4151 5.84204L22.415 5.8404C22.4128 5.82636 22.4101 5.81242 22.4068 5.79861C22.4059 5.79468 22.4054 5.79096 22.4045 5.78702C22.4002 5.7695 22.395 5.75221 22.3889 5.73522L21.6076 3.55055L25.2411 2.20498L26.0225 4.38936C26.0984 4.60042 26.2974 4.7428 26.5182 4.7428C26.5794 4.7428 26.6406 4.73207 26.6989 4.70989C26.9717 4.60901 27.113 4.30057 27.0139 4.02233L26.052 1.33297C26.0195 1.24301 25.9639 1.1635 25.8912 1.10264C25.8184 1.04177 25.7309 1.00175 25.6379 0.986684C25.55 0.972531 25.46 0.98137 25.3763 1.01237L20.7537 2.72455C20.753 2.72483 20.7521 2.72491 20.7513 2.72519C20.7499 2.72569 20.7487 2.72641 20.7473 2.72691L18.113 3.70266C18.1115 3.70323 18.1099 3.70338 18.1084 3.70395C18.1058 3.70495 18.1033 3.70624 18.1007 3.70724L13.4834 5.41741C13.4183 5.4413 13.3585 5.47807 13.3075 5.52559C13.2564 5.57311 13.2151 5.63045 13.186 5.6943C13.1564 5.75813 13.1396 5.82733 13.1366 5.89784C13.1336 5.96835 13.1444 6.03876 13.1684 6.10497L16.2943 14.8447L19.3004 23.2494C18.9141 23.1293 18.5132 23.0643 18.1094 23.0563L10.4939 1.7654C9.99669 0.37532 8.48076 -0.343937 7.11453 0.161897L7.1139 0.162183L0.348255 2.64513L0.347904 2.64527L0.346779 2.64563C0.334615 2.65014 0.323083 2.65551 0.311482 2.6608C0.307052 2.6628 0.302412 2.66445 0.298052 2.6666C0.286662 2.6721 0.275834 2.67854 0.265006 2.68484C0.260576 2.68742 0.255865 2.68963 0.251506 2.69242C0.241099 2.69886 0.231396 2.70602 0.221553 2.7131C0.217193 2.71625 0.212553 2.71911 0.208334 2.72233C0.199193 2.72941 0.190686 2.73707 0.182037 2.74472C0.177678 2.74866 0.172967 2.75216 0.168748 2.75617C0.160592 2.76376 0.153139 2.77213 0.145545 2.78021C0.141397 2.78472 0.136967 2.7888 0.132959 2.79338C0.125788 2.8016 0.119249 2.8104 0.112569 2.81906C0.108772 2.82393 0.104624 2.82865 0.101038 2.83373C0.0949909 2.84217 0.0896472 2.85104 0.0840925 2.85984C0.0805066 2.86557 0.0765691 2.871 0.0731942 2.8768C0.0681317 2.88553 0.0637723 2.89469 0.0592021 2.9037C0.056038 2.90992 0.0525224 2.91601 0.0495693 2.92237C0.0454912 2.93125 0.0421865 2.9404 0.0385303 2.94949C0.0357881 2.95643 0.0326944 2.96301 0.0303038 2.97002C0.0272101 2.9789 0.0248194 2.98805 0.0222179 2.99707C0.0200382 3.00451 0.017507 3.01188 0.0156086 3.01946C0.0134289 3.02833 0.0119523 3.03749 0.0101945 3.04651C0.00864766 3.05438 0.00674923 3.06225 0.00555393 3.07019C0.00414768 3.07935 0.0036555 3.08865 0.00274144 3.09788C0.00196801 3.10589 0.000772703 3.1139 0.000350831 3.12199C-0.000141354 3.13143 0.000210206 3.14088 0.000210206 3.15032C0.000210206 3.15841 -0.000211666 3.16649 0.000139894 3.17457C0.000561767 3.18416 0.0018977 3.19382 0.00281175 3.20341C0.00358519 3.21135 0.00400706 3.21936 0.00513205 3.22738C0.0065383 3.23689 0.00878828 3.24641 0.0106867 3.25592C0.0123039 3.26401 0.0134992 3.27216 0.0154679 3.28025C0.0177882 3.28977 0.0210929 3.29914 0.0239757 3.30858C0.0263663 3.31638 0.0282647 3.32432 0.0310069 3.33212L0.0312178 3.33262C0.031279 3.33296 0.0313732 3.3333 0.0314991 3.33362L0.752971 5.35052C0.758386 5.36569 0.765839 5.37949 0.772378 5.39387C0.77751 5.40504 0.781659 5.41691 0.787495 5.42757C0.795721 5.44267 0.805635 5.45612 0.815127 5.47022C0.821104 5.47902 0.826166 5.48867 0.832635 5.49704C0.843955 5.51186 0.856893 5.52502 0.869549 5.53833C0.875455 5.54455 0.880658 5.55163 0.886846 5.55757C0.901119 5.57124 0.916799 5.58312 0.932338 5.59499C0.937963 5.59936 0.943025 5.60444 0.948791 5.60844C0.965595 5.62025 0.983595 5.63019 1.0016 5.63985C1.00694 5.64271 1.01186 5.64643 1.01727 5.64915C1.0357 5.65831 1.05503 5.66539 1.07437 5.67226C1.07999 5.67427 1.08527 5.67713 1.09096 5.67899C1.11079 5.68536 1.13118 5.68943 1.15171 5.69344C1.15734 5.69451 1.16282 5.69652 1.16852 5.69737C1.20986 5.704 1.25184 5.70547 1.29353 5.70174C1.29662 5.70145 1.29965 5.70081 1.30274 5.70052C1.31469 5.69923 1.32658 5.69788 1.33853 5.6958C1.34402 5.6948 1.3495 5.6933 1.35498 5.69215C1.36448 5.69015 1.37397 5.68829 1.38339 5.68571C1.39344 5.68307 1.40336 5.67956 1.41334 5.6762C1.41805 5.67469 1.42276 5.67341 1.42741 5.67169L1.42797 5.67147L1.42881 5.67119L1.42944 5.6709L7.70037 3.3694L15.1368 24.1589C13.8103 25.3395 13.2578 27.273 13.8959 29.0567C14.5256 30.8171 16.1852 32 18.0256 32C18.5382 31.9999 19.0468 31.9083 19.5283 31.7293C20.6313 31.3207 21.5118 30.4997 22.008 29.4172C22.2679 28.8518 22.4082 28.2371 22.4199 27.613L35.6527 22.7164L35.6529 22.7163C35.6564 22.7151 35.6597 22.7133 35.6631 22.712C35.6766 22.7067 35.6899 22.7013 35.7026 22.695C35.708 22.6924 35.713 22.6892 35.7183 22.6863C35.7287 22.6808 35.7391 22.6754 35.7491 22.6693C35.7547 22.6657 35.7599 22.6615 35.7654 22.6579C35.7744 22.6517 35.7836 22.6458 35.7922 22.6392C35.7949 22.6371 35.7973 22.6346 35.8 22.6325C35.8108 22.6237 35.8216 22.6149 35.8316 22.6054C35.8333 22.6035 35.8348 22.6017 35.8365 22.6001C35.8471 22.5896 35.8576 22.5791 35.8673 22.568C35.8693 22.5657 35.8709 22.5632 35.8729 22.5609C35.882 22.5501 35.891 22.5391 35.8992 22.5275C35.9001 22.5263 35.9008 22.525 35.9016 22.5237C35.9106 22.5109 35.9191 22.4978 35.9269 22.4843C35.9284 22.4819 35.9295 22.4792 35.9309 22.4767C35.9378 22.4643 35.9445 22.4518 35.9505 22.4388C35.9528 22.4337 35.9547 22.4284 35.9568 22.4232C35.9613 22.4126 35.9658 22.402 35.9697 22.3912C35.9723 22.3837 35.9742 22.3759 35.9765 22.3683C35.9791 22.3595 35.9821 22.3508 35.9843 22.3419C35.9876 22.3286 35.99 22.3152 35.9922 22.3017C35.9928 22.2982 35.9937 22.2947 35.9942 22.2912C36.0072 22.2028 35.9982 22.1125 35.968 22.0286ZM20.6167 3.91759L21.2175 5.59821L19.5657 6.20993L18.9646 4.52938L20.6167 3.91759ZM23.7428 12.6573L24.344 14.3378L22.6918 14.9496L22.0907 13.2691L23.7428 12.6573ZM17.4662 14.9816L21.0998 13.636L21.8814 15.8206C21.9186 15.9241 21.986 16.0134 22.0747 16.0766C22.1633 16.1398 22.2689 16.1738 22.3771 16.174C22.4383 16.174 22.4987 16.1626 22.5571 16.1411L25.2001 15.1623C25.4736 15.0614 25.6149 14.7531 25.5151 14.4748L24.7335 12.2903L28.3678 10.9444L31.8556 20.6953L21.3342 24.5886C21.1373 24.3595 20.9181 24.1513 20.6799 23.9672L17.4662 14.9816ZM8.51177 2.49939C8.50868 2.49081 8.50481 2.48272 8.50136 2.47428C8.49792 2.46605 8.49483 2.45754 8.49103 2.44945C8.48758 2.44208 8.48351 2.43536 8.47978 2.42827C8.47514 2.41947 8.47071 2.41046 8.46565 2.40202C8.46213 2.39622 8.45812 2.39093 8.4544 2.38527C8.44842 2.37612 8.44265 2.36682 8.43612 2.35816C8.43274 2.35358 8.42887 2.3495 8.42536 2.34499C8.41805 2.33576 8.4108 2.32653 8.40286 2.31788C8.39969 2.31437 8.39611 2.31122 8.3928 2.30779C8.38408 2.29877 8.37544 2.28976 8.36615 2.28139C8.36348 2.27903 8.3606 2.27695 8.35793 2.27466C8.34776 2.26564 8.33722 2.25705 8.32636 2.24891C8.32481 2.24776 8.32312 2.2469 8.32158 2.24569C8.30937 2.23678 8.29679 2.2284 8.28389 2.22057L8.28087 2.219C8.2083 2.17608 8.12675 2.15133 8.04293 2.14681H8.04068C8.02428 2.146 8.00786 2.14598 7.99146 2.14674C7.98844 2.14688 7.98541 2.14745 7.98239 2.14767C7.96814 2.14847 7.95392 2.14988 7.93978 2.15189C7.93296 2.15296 7.92621 2.15468 7.91939 2.15604C7.90899 2.15797 7.89851 2.15976 7.8881 2.16241C7.87629 2.16541 7.86455 2.16949 7.85281 2.17328C7.8476 2.175 7.84233 2.17629 7.83713 2.17815L7.83642 2.17843L7.83565 2.17865L7.83502 2.17893L1.56409 4.48044L1.20332 3.47192L7.47347 1.1707L7.47382 1.17056L7.47495 1.1702C8.29479 0.866629 9.20427 1.2982 9.50261 2.13236L17.0284 23.1725C16.8567 23.2131 16.6876 23.2642 16.5219 23.3254C16.3563 23.3871 16.1946 23.4589 16.0375 23.5403L8.51177 2.49939ZM21.0519 28.9635C20.6749 29.7862 20.0057 30.4102 19.1674 30.7207C18.8016 30.8568 18.4151 30.9266 18.0255 30.9267C16.6268 30.9267 15.3654 30.0277 14.8869 28.6895C14.257 26.9288 15.1525 24.9748 16.8829 24.3338C17.2488 24.1977 17.6353 24.1279 18.0249 24.1277C19.4235 24.1277 20.6849 25.0268 21.1635 26.365C21.4686 27.218 21.429 28.1409 21.0519 28.9635ZM22.3045 26.5136C22.2645 26.3389 22.2144 26.1667 22.1545 25.998C22.0941 25.8295 22.0238 25.6649 21.9439 25.505L34.4357 20.8827L34.7965 21.8912L22.3045 26.5136Z" fill="#FD5523"/>
</svg>
